<?xml version="1.0" encoding="UTF-8"?>
<svg id="Layer_2" data-name="Layer 2" xmlns="http://www.w3.org/2000/svg" viewBox="0 0 174.92 93.16">
  <defs>
    <style>
      .cls-1 {
        fill: #231f20;
        stroke-width: 0px;
      }
    </style>
  </defs>
  <g id="Layer_1-2" data-name="Layer 1">
    <g>
      <g>
        <path class="cls-1" d="M21.8,19.54C8.97,19.54,1.13,8.62,0,.85-.11.01,1.04-.34,1.4.42c2.09,4.34,5.83,9.04,22.06,9.04h60.33l-3.28,10.08H21.8ZM99.15,34.15l7.22,22.23-16.21-11.78v30h14.07c.01-10.1,7.34-17.11,11.42-20.23,1.68-1.29,2.65-3.3,2.65-5.41v-13.57c1.39.49,7.28.82,9.39.82,8.11,0,15.59-11.67,15.59-11.67h-30.91l-13.23,9.61ZM173.52.42c-2.09,4.34-5.83,9.04-22.06,9.04h-60.33l3.28,10.08h58.72c12.83,0,20.68-10.92,21.79-18.69.12-.84-1.03-1.2-1.4-.43ZM84.76,74.6v-30l-16.21,11.78,7.22-22.23-13.23-9.61h-30.91s7.48,11.67,15.59,11.67c2.11,0,8-.33,9.39-.82v13.57c0,2.12.97,4.13,2.65,5.41,4.07,3.12,11.4,10.13,11.42,20.23h14.07Z"/>
        <polygon class="cls-1" points="81.65 32.24 78.05 43.3 87.46 36.46 96.87 43.3 93.28 32.24 102.69 25.4 91.06 25.4 87.46 14.34 83.87 25.4 72.23 25.4 81.65 32.24"/>
      </g>
      <polygon class="cls-1" points="99.75 79.6 98.24 83.73 92.28 83.73 91.49 79.6 83.44 79.6 82.64 83.73 76.68 83.73 75.18 79.6 68.19 79.6 73.42 93.16 101.51 93.16 106.73 79.6 99.75 79.6"/>
    </g>
  </g>
</svg>